<svg xmlns="http://www.w3.org/2000/svg" xmlns:xlink="http://www.w3.org/1999/xlink" version="1.1" x="0px" y="0px" viewBox="0 0 50 62.5" enable-background="new 0 0 50 50" xml:space="preserve"><g><g><path d="M45.1,9h-4.5c-0.9,0-1.7,0.7-1.9,1.5h-4.2V7.4c0-1.1-0.9-1.9-1.9-1.9H18.2c-1.1,0-1.9,0.9-1.9,1.9v3.1h-4.4    c-1.7,0-3,1.4-3,3v2.7h-1c-1,0-1.8,0.8-1.8,1.8V22h-3c-1.5,0-2.8,1.3-2.8,2.8c0,1.5,1.3,2.8,2.8,2.8h3v3.9c0,1,0.8,1.8,1.8,1.8h1    V36c0,1.7,1.4,3,3,3h4.4v1.3h-2c-1.1,0-2.1,0.9-2.1,2.1c0,1.1,0.9,2.1,2.1,2.1h24.5c1.1,0,2.1-0.9,2.1-2.1c0-1.1-0.9-2.1-2.1-2.1    h-2V39h1.8c0.2,0.9,0.9,1.5,1.9,1.5h4.5c2.6,0,4.7-2.1,4.7-4.7V13.7C49.7,11.1,47.6,9,45.1,9z M17.8,7.4C17.8,7.2,18,7,18.2,7    h14.5c0.2,0,0.4,0.2,0.4,0.4v3.1H17.8V7.4z M3.1,26.1c-0.7,0-1.3-0.6-1.3-1.3c0-0.7,0.6-1.3,1.3-1.3h3v2.6H3.1z M7.9,31.8    c-0.2,0-0.3-0.1-0.3-0.3V18.1c0-0.1,0.1-0.3,0.3-0.3h1v14H7.9z M10.4,36V13.6c0-0.8,0.7-1.5,1.5-1.5h26.8v25.5H11.9    C11,37.5,10.4,36.9,10.4,36z M39.5,42.4c0,0.3-0.3,0.6-0.6,0.6H14.4c-0.3,0-0.6-0.3-0.6-0.6c0-0.3,0.3-0.6,0.6-0.6h2.7l0,0l0,0    h19.1l0,0l0,0h2.7C39.2,41.8,39.5,42.1,39.5,42.4z M35.4,40.3H17.8V39h17.6V40.3z M48.2,35.9c0,1.8-1.4,3.2-3.2,3.2h-4.5    c-0.2,0-0.4-0.2-0.4-0.4v-0.4c0,0,0,0,0,0c0,0,0,0,0,0V11.4c0,0,0,0,0,0c0,0,0,0,0,0v-0.4c0-0.2,0.2-0.4,0.4-0.4h4.5    c1.8,0,3.2,1.4,3.2,3.2V35.9z"/></g><g><path d="M15.7,16.2h18.5c0.4,0,0.8-0.3,0.8-0.7c0-0.4-0.3-0.8-0.8-0.8H15.7c-0.4,0-0.8,0.3-0.8,0.8C15,15.8,15.3,16.2,15.7,16.2z"/></g><g><path d="M15.7,19.9h18.5c0.4,0,0.8-0.3,0.8-0.8c0-0.4-0.3-0.8-0.8-0.8H15.7c-0.4,0-0.8,0.3-0.8,0.8C15,19.6,15.3,19.9,15.7,19.9z"/></g><g><path d="M15.7,23.7h18.5c0.4,0,0.8-0.3,0.8-0.8c0-0.4-0.3-0.8-0.8-0.8H15.7c-0.4,0-0.8,0.3-0.8,0.8C15,23.3,15.3,23.7,15.7,23.7z"/></g><g><path d="M15.7,27.4h18.5c0.4,0,0.8-0.3,0.8-0.8c0-0.4-0.3-0.8-0.8-0.8H15.7c-0.4,0-0.8,0.3-0.8,0.8C15,27.1,15.3,27.4,15.7,27.4z"/></g><g><path d="M15.7,31.2h18.5c0.4,0,0.8-0.3,0.8-0.8c0-0.4-0.3-0.8-0.8-0.8H15.7c-0.4,0-0.8,0.3-0.8,0.8C15,30.9,15.3,31.2,15.7,31.2z"/></g><g><path d="M35,34.2c0-0.4-0.3-0.8-0.8-0.8H15.7c-0.4,0-0.8,0.3-0.8,0.8c0,0.4,0.3,0.8,0.8,0.8h18.5C34.7,35,35,34.6,35,34.2z"/></g></g><text x="0" y="65" fill="#000000" font-size="5px" font-weight="bold" font-family="'Helvetica Neue', Helvetica, Arial-Unicode, Arial, Sans-serif">Created by ProSymbols</text><text x="0" y="70" fill="#000000" font-size="5px" font-weight="bold" font-family="'Helvetica Neue', Helvetica, Arial-Unicode, Arial, Sans-serif">from the Noun Project</text></svg>